<?xml version="1.0" encoding="utf-8"?>
<!-- Generator: Adobe Illustrator 14.0.0, SVG Export Plug-In  -->
<!DOCTYPE svg PUBLIC "-//W3C//DTD SVG 1.1//EN" "http://www.w3.org/Graphics/SVG/1.1/DTD/svg11.dtd" [
	<!ENTITY ns_flows "http://ns.adobe.com/Flows/1.0/">
]>
<svg version="1.1"
	 xmlns="http://www.w3.org/2000/svg" xmlns:xlink="http://www.w3.org/1999/xlink" xmlns:a="http://ns.adobe.com/AdobeSVGViewerExtensions/3.0/"
	 x="0px" y="0px" width="792px" height="576px" viewBox="-68.317 -75.554 792 576" enable-background="new -68.317 -75.554 792 576"
	 xml:space="preserve">
<defs>
</defs>
<text transform="matrix(1 9.200000e-04 -9.200000e-04 1 295.5151 139.145)" font-family="'Helvetica'" font-size="21">blurry pinkness</text>
<text transform="matrix(1 9.200000e-04 -9.200000e-04 1 464.3359 139.2334)" font-family="'Helvetica'" font-size="21">cheap perfume</text>
<text transform="matrix(1 9.200000e-04 -9.200000e-04 1 0.3115 183.4688)" font-family="'Helvetica'" font-size="21">...God was back in there....,</text>
<text transform="matrix(1 9.200000e-04 -9.200000e-04 1 282.9331 184.1372)" font-family="'Helvetica'" font-size="21">hypnotized bunnies</text>
<text transform="matrix(1 9.200000e-04 -9.200000e-04 1 489.4424 185.8936)" font-family="'Helvetica'" font-size="21">long false eyelashes</text>
<text transform="matrix(1 9.200000e-04 -9.200000e-04 1 195.6221 228.9551)" font-family="'Helvetica'" font-size="21">why is there hair on a coconut?</text>
<text transform="matrix(1 9.200000e-04 -9.200000e-04 1 304.5039 274.5908)" font-family="'Myriad-Roman'" font-size="21">tiny key</text>
<text transform="matrix(1 9.200000e-04 -9.200000e-04 1 0.2437 138.9492)" font-family="'Helvetica'" font-size="21">amorous darkness (laughing)</text>
<path fill="none" stroke="#EB2D2E" stroke-width="3" d="M358.095,400.806c0.097,11.651-9.269,21.172-20.921,21.27
	c-11.647,0.099-21.17-9.267-21.269-20.921c-0.092-11.649,9.27-21.174,20.919-21.267
	C348.477,379.791,357.998,389.151,358.095,400.806z"/>
<path fill="none" stroke="#EB2D2E" stroke-width="3" d="M366.741,400.499c0.133,16.37-13.028,29.757-29.402,29.891
	c-16.373,0.136-29.754-13.026-29.89-29.403c-0.14-16.367,13.027-29.753,29.397-29.893
	C353.22,370.962,366.608,384.125,366.741,400.499z"/>
<path fill="none" stroke="#EB2D2E" stroke-width="3" d="M333.238,370.762c0,0,0.21-5.708,0.36-13.416
	c0.109-5.445-0.952-15.978-2.197-21.775c-1.128-5.266-5.567-20.323-10.259-21.773c-7.206-2.227-7.438,9.672-6.951,18.972
	c0.522,9.878,1.661,16.335,2.802,20.227c2.562,8.729,0.771,3.678,3.825,12.596c3.919,11.43,0.807,1.374,2.98,8.342"/>
<path fill="none" stroke="#EB2D2E" stroke-width="3" d="M342.137,371.753c0,0-0.307-5.703-0.582-13.405
	c-0.201-5.45,0.683-15.998,1.838-21.812c1.039-5.28,5.228-20.408,9.896-21.938c7.165-2.342,7.595,9.547,7.261,18.851
	c-0.354,9.885-1.387,16.365-2.467,20.275c-2.42,8.772-0.709,3.686-3.619,12.655c-3.723,11.492-0.786,1.394-2.84,8.391"/>
<text transform="matrix(0.7005 -0.0058 0.0083 1 332.6377 407.3594)" font-family="'Myriad-Roman'" font-size="21">O</text>
<text transform="matrix(1 -0.0083 0.0083 1 211.8071 406.2227)" font-family="'Helvetica'" font-size="14">.....ee000000.</text>
<rect x="375.785" y="404.389" transform="matrix(1 -0.0082 0.0082 1 -3.2963 3.1124)" fill="none" width="5.848" height="0"/>
<text transform="matrix(1 -0.0083 0.0083 1 375.2412 405.5566)" font-family="'Helvetica'" font-size="14">0000oooo</text>
<text transform="matrix(1 8.799999e-04 -8.799999e-04 1 0.0088 18.0303)" font-family="'Helvetica'" font-size="21">Room 11: (camera turned off)</text>
<text transform="matrix(1 8.799999e-04 -8.799999e-04 1 0.3311 67.7158)" font-family="'Helvetica'" font-size="21">He said: “My pillow smelled of her hair.”</text>
</svg>
